<svg width="75" height="16" viewBox="0 0 75 16" fill="none" xmlns="http://www.w3.org/2000/svg">
<path d="M15.4247 9.93677C14.3788 14.2225 10.1301 16.8307 5.93478 15.7619C1.74114 14.6934 -0.811796 10.3525 0.234533 6.06708C1.27988 1.7809 5.52858 -0.827562 9.72271 0.240921C13.9178 1.3094 16.4705 5.65084 15.4247 9.93677Z" fill="#FCA014"/>
<path d="M11.2822 6.8612C11.438 5.79672 10.6447 5.22448 9.55998 4.84273L9.91185 3.40075L9.05272 3.18201L8.71014 4.58599C8.48429 4.52849 8.25231 4.47424 8.0218 4.42049L8.36683 3.00726L7.50818 2.78851L7.15606 4.22999C6.96911 4.18649 6.78559 4.1435 6.60745 4.09825L6.60842 4.09374L5.4236 3.7915L5.19505 4.72898C5.19505 4.72898 5.83249 4.87823 5.81903 4.88748C6.16699 4.97623 6.22988 5.21147 6.21936 5.39797L5.81854 7.0407C5.84252 7.04695 5.8736 7.05595 5.90786 7.06995C5.87923 7.0627 5.84864 7.0547 5.81708 7.04695L5.25524 9.34816C5.21267 9.45616 5.10476 9.61816 4.86153 9.55666C4.87009 9.56941 4.23706 9.39741 4.23706 9.39741L3.81055 10.4021L4.92857 10.6869C5.13657 10.7401 5.3404 10.7959 5.54105 10.8484L5.18551 12.3069L6.04366 12.5256L6.39578 11.0826C6.63021 11.1476 6.85778 11.2076 7.08045 11.2641L6.72956 12.7004L7.58869 12.9191L7.94424 11.4634C9.40924 11.7466 10.5109 11.6324 10.9746 10.2786C11.3482 9.18866 10.956 8.55993 10.1852 8.14993C10.7465 8.01768 11.1694 7.64044 11.2822 6.8612ZM9.31919 9.67341C9.0537 10.7634 7.25737 10.1741 6.67498 10.0264L7.14676 8.09418C7.72915 8.24268 9.59668 8.53668 9.31919 9.67341ZM9.58493 6.84545C9.34268 7.83693 7.84758 7.33319 7.36258 7.20969L7.79032 5.45723C8.27531 5.58072 9.83722 5.81122 9.58493 6.84545Z" fill="white"/>
<g opacity="0.5">
<path d="M22.9469 4.84128C23.5819 4.84128 24.1305 4.95752 24.5915 5.18577C25.0547 5.41627 25.437 5.72677 25.7436 6.11726C26.046 6.50975 26.2711 6.9685 26.4165 7.49424C26.5609 8.02148 26.6333 8.58822 26.6333 9.19496C26.6333 10.1269 26.4662 11.0074 26.1287 11.8374C25.7913 12.6687 25.3334 13.3896 24.7511 14.0046C24.1692 14.6189 23.4821 15.1031 22.6897 15.4609C21.8986 15.8189 21.0385 15.9979 20.115 15.9979C19.9956 15.9979 19.7857 15.9944 19.4891 15.9881C19.1925 15.9819 18.8516 15.9506 18.4699 15.8979C18.0857 15.8431 17.6795 15.7621 17.2506 15.6536C16.8219 15.5471 16.4147 15.3979 16.0312 15.2084L19.46 0.489601L22.5309 0.00335693L21.3033 5.22653C21.5661 5.10553 21.8308 5.01178 22.0951 4.94353C22.3596 4.87628 22.6435 4.84128 22.9469 4.84128ZM20.371 13.5089C20.8334 13.5089 21.2693 13.3926 21.6786 13.1644C22.0892 12.9359 22.4436 12.6274 22.7404 12.2432C23.0372 11.8572 23.2721 11.4224 23.4434 10.9367C23.6147 10.4509 23.7013 9.9442 23.7013 9.41696C23.7013 8.76922 23.5954 8.26398 23.3842 7.89873C23.173 7.53499 22.7822 7.35199 22.2148 7.35199C22.0288 7.35199 21.7892 7.38824 21.4922 7.45299C21.1941 7.52174 20.9274 7.66449 20.6883 7.87923L19.3812 13.4261C19.46 13.4404 19.5297 13.4539 19.5892 13.4666C19.6474 13.4804 19.7118 13.4901 19.7759 13.4969C19.8436 13.5046 19.9212 13.5086 20.0149 13.5086C20.1087 13.5086 20.2259 13.5089 20.371 13.5089Z" fill="#666666"/>
<path d="M29.818 15.7161H26.8848L29.3618 5.06702H32.3151L29.818 15.7161ZM31.2453 3.76954C30.8359 3.76954 30.4647 3.64504 30.1353 3.39554C29.8033 3.14755 29.6388 2.7658 29.6388 2.25131C29.6388 1.96832 29.6951 1.70282 29.8067 1.45232C29.92 1.20232 30.068 0.98708 30.2535 0.804083C30.4388 0.622586 30.6534 0.477585 30.8971 0.368337C31.1423 0.260839 31.4031 0.207092 31.6811 0.207092C32.0902 0.207092 32.4595 0.331591 32.7901 0.581087C33.1194 0.831833 33.2851 1.21358 33.2851 1.72532C33.2851 2.00931 33.2291 2.27581 33.1165 2.5258C33.0047 2.7758 32.8566 2.99104 32.6711 3.17404C32.4874 3.35579 32.2708 3.50029 32.0276 3.60854C31.7822 3.71778 31.5223 3.76954 31.2453 3.76954Z" fill="#666666"/>
<path d="M34.8848 2.4138L37.957 1.92755L37.2026 5.0665H40.4928L39.8987 7.53596H36.6283L35.7572 11.2609C35.6769 11.5714 35.6314 11.8614 35.6187 12.1309C35.6043 12.4016 35.6378 12.6341 35.7171 12.8299C35.7959 13.0261 35.9375 13.1774 36.1431 13.2844C36.3477 13.3931 36.6406 13.4479 37.0247 13.4479C37.3411 13.4479 37.6494 13.4171 37.9475 13.3561C38.2438 13.2961 38.5441 13.2126 38.848 13.1034L39.0667 15.4123C38.6703 15.5608 38.2411 15.6886 37.7786 15.7961C37.3154 15.9051 36.7671 15.9576 36.1333 15.9576C35.222 15.9576 34.5156 15.8193 34.0122 15.5441C33.5096 15.2668 33.1543 14.8881 32.9417 14.4086C32.732 13.9309 32.6383 13.3801 32.6644 12.7596C32.6916 12.1376 32.7834 11.4839 32.9417 10.7954L34.8848 2.4138Z" fill="#666666"/>
</g>
<path d="M40.3652 11.4636C40.3652 10.5464 40.5106 9.68143 40.801 8.87169C41.091 8.06121 41.5087 7.35246 42.0507 6.74422C42.5908 6.13898 43.2488 5.65949 44.0232 5.30749C44.794 4.9575 45.6571 4.78101 46.6082 4.78101C47.2036 4.78101 47.7353 4.83851 48.2032 4.95376C48.673 5.07 49.098 5.22025 49.4824 5.40875L48.4709 7.75871C48.2066 7.64921 47.9323 7.55271 47.6487 7.46521C47.3648 7.37596 47.0183 7.33297 46.6085 7.33297C45.6294 7.33297 44.8554 7.67771 44.2794 8.36495C43.7056 9.05269 43.4166 9.97842 43.4166 11.1397C43.4166 11.8279 43.562 12.3844 43.8537 12.8101C44.1439 13.2359 44.68 13.4476 45.4584 13.4476C45.8426 13.4476 46.2133 13.4066 46.5683 13.3266C46.9261 13.2456 47.242 13.1436 47.5202 13.0231L47.7392 15.4321C47.3682 15.5791 46.9591 15.7118 46.5103 15.8281C46.0606 15.9403 45.5252 15.9986 44.9044 15.9986C44.0849 15.9986 43.3912 15.8761 42.8237 15.6348C42.256 15.3898 41.7869 15.0646 41.4174 14.6526C41.046 14.2396 40.7793 13.7574 40.6143 13.2039C40.4494 12.6509 40.3652 12.0699 40.3652 11.4636Z" fill="#666666"/>
<path d="M53.3939 15.9986C52.6938 15.9986 52.0857 15.8896 51.5699 15.6738C51.0556 15.4581 50.6295 15.1553 50.2926 14.7629C49.9552 14.3724 49.7026 13.9096 49.5296 13.3764C49.3566 12.8434 49.2734 12.2531 49.2734 11.6064C49.2734 10.7952 49.4009 9.98417 49.6586 9.17544C49.915 8.36495 50.2955 7.63671 50.7991 6.98947C51.2988 6.34124 51.9152 5.81124 52.641 5.39799C53.366 4.9875 54.1999 4.78101 55.1367 4.78101C55.824 4.78101 56.4289 4.89025 56.9518 5.106C57.4723 5.32124 57.901 5.62649 58.2399 6.01699C58.5752 6.40948 58.8299 6.87023 59.0012 7.40422C59.1737 7.93621 59.2588 8.52795 59.2588 9.17519C59.2588 9.98392 59.1331 10.7949 58.8835 11.6061C58.6336 12.4134 58.2629 13.1434 57.7735 13.7921C57.2851 14.4394 56.6743 14.9691 55.9407 15.3806C55.2081 15.7921 54.3585 15.9986 53.3939 15.9986ZM54.8599 7.33322C54.4251 7.33322 54.0406 7.46221 53.7115 7.71696C53.3812 7.9747 53.1037 8.2987 52.88 8.68945C52.6539 9.08194 52.4863 9.50993 52.373 9.97518C52.2607 10.4414 52.2057 10.8822 52.2057 11.3009C52.2057 11.9766 52.3123 12.5029 52.5221 12.8816C52.7347 13.2584 53.1167 13.4479 53.6719 13.4479C54.1082 13.4479 54.4907 13.3199 54.8217 13.0624C55.1501 12.8066 55.4278 12.4824 55.6532 12.0909C55.8778 11.7004 56.0469 11.2712 56.1602 10.8052C56.2711 10.3404 56.3276 9.89718 56.3276 9.47918C56.3276 8.80519 56.2214 8.2777 56.0097 7.89946C55.7983 7.52271 55.4146 7.33322 54.8599 7.33322Z" fill="#666666"/>
<path d="M62.4571 15.7161H59.5215L61.9986 5.06702H64.9533L62.4571 15.7161ZM63.8823 3.76954C63.4731 3.76954 63.1022 3.64504 62.7733 3.39554C62.4429 3.14755 62.277 2.7658 62.277 2.25131C62.277 1.96832 62.334 1.70282 62.4459 1.45232C62.5577 1.20232 62.7067 0.98708 62.8922 0.804083C63.0765 0.622586 63.293 0.477585 63.5362 0.368337C63.78 0.260839 64.0408 0.207092 64.3178 0.207092C64.7279 0.207092 65.0984 0.331591 65.4283 0.581087C65.7584 0.831833 65.925 1.21358 65.925 1.72532C65.925 2.00931 65.8658 2.27581 65.7549 2.5258C65.6441 2.7758 65.4951 2.99104 65.3103 3.17404C65.1243 3.35579 64.9105 3.50029 64.6668 3.60854C64.4211 3.71778 64.1607 3.76954 63.8823 3.76954Z" fill="#666666"/>
<path d="M67.0672 5.55127C67.2899 5.48477 67.5385 5.40478 67.8089 5.31778C68.0803 5.23078 68.3835 5.14978 68.7221 5.07679C69.0571 5.00154 69.4352 4.94054 69.8509 4.89329C70.2667 4.84504 70.7404 4.82153 71.2667 4.82153C72.8137 4.82153 73.8801 5.28178 74.4689 6.19952C75.0571 7.11725 75.1589 8.37323 74.7772 9.96521L73.4279 15.7151H70.4754L71.7831 10.0862C71.8628 9.73471 71.9255 9.39496 71.9717 9.06297C72.0185 8.73397 72.0158 8.44398 71.9612 8.19299C71.9091 7.94499 71.7862 7.74199 71.5956 7.58474C71.4021 7.42999 71.1096 7.35225 70.713 7.35225C70.3305 7.35225 69.9415 7.39425 69.5443 7.47525L67.6217 15.7149H64.668L67.0672 5.55127Z" fill="#666666"/>
</svg>
